# xmcd
#
# Track frame offsets: 
#        150
#        19365
#        39770
#        55123
#        76793
#        89381
#        108170
#        123497
#        152591
#        169795
#        188430
#
# Disc length: 2732 seconds
#
# Revision: 1
# Processed by: cddbd v1.5.2PL0 Copyright (c) Steve Scherf et al.
# Submitted via: ExactAudioCopy v0.95b4
#
DISCID=750aaa0b
DTITLE=Anna Sise - But Beautiful (Japan Edition)
DYEAR=1900
DGENRE=Jazz
TTITLE0=A Nightingale Sang In Berkeley Square
TTITLE1=But Beautiful
TTITLE2=It Ain't Me Babe
TTITLE3=Bye Bye Blackbird
TTITLE4=All The Things You Are
TTITLE5=Visan Om Mina Vanner
TTITLE6=It's Allright With Me
TTITLE7=Suzanne
TTITLE8=That Old Feeling
TTITLE9=Second Time Around
TTITLE10=I'll Never Be The Same
EXTD=
EXTT0=
EXTT1=
EXTT2=
EXTT3=
EXTT4=
EXTT5=
EXTT6=
EXTT7=
EXTT8=
EXTT9=
EXTT10=
PLAYORDER=
